<?xml version="1.0" standalone="no"?>
<!DOCTYPE svg PUBLIC "-//W3C//DTD SVG 20010904//EN"
 "http://www.w3.org/TR/2001/REC-SVG-20010904/DTD/svg10.dtd">
<svg version="1.0" xmlns="http://www.w3.org/2000/svg"
 width="416.000000pt" height="416.000000pt" viewBox="0 0 416.000000 416.000000"
 preserveAspectRatio="xMidYMid meet">
<metadata>
Created by potrace 1.11, written by Peter Selinger 2001-2013
</metadata>
<g transform="translate(0.000000,416.000000) scale(0.100000,-0.100000)"
fill="#000000" stroke="none">
<path d="M1368 4146 c-10 -7 -22 -25 -27 -40 -7 -17 -10 -247 -10 -647 0 -342
-2 -623 -4 -625 -2 -3 -287 -5 -633 -5 -432 0 -635 -4 -649 -11 -50 -27 -60
-84 -20 -123 28 -29 -48 -26 773 -26 l532 0 0 -47 c1 -57 1 -946 0 -1054 l0
-76 -636 0 c-694 0 -675 1 -690 -57 -8 -34 12 -80 41 -93 17 -8 219 -11 651
-11 345 0 629 -2 631 -5 2 -2 4 -286 4 -630 0 -424 3 -634 11 -650 15 -33 49
-49 87 -41 65 14 63 -12 63 690 l0 635 112 0 c121 1 697 1 923 0 l141 0 0
-635 c0 -695 -1 -676 57 -691 34 -8 80 12 93 41 7 16 11 226 11 651 0 345 2
629 4 631 3 2 287 4 632 4 563 0 631 2 656 16 44 26 51 77 16 118 l-22 27
-643 0 -642 0 0 61 c-1 100 -1 1028 0 1074 l0 43 634 -1 c447 -1 640 3 655 10
30 17 44 48 36 88 -12 64 -1 63 -695 62 -342 0 -624 2 -627 5 -2 2 -4 286 -4
631 0 426 -4 634 -11 650 -13 29 -59 49 -93 41 -57 -14 -55 4 -55 -689 l0
-637 -120 0 c-66 0 -284 0 -485 0 -201 0 -412 0 -470 0 l-105 0 0 483 c2 861
4 794 -25 822 -27 27 -70 32 -97 11z m1299 -2064 l-2 -587 -587 -2 -587 -1 0
588 0 589 590 0 589 0 -3 -587z"/>
<path d="M1615 2545 c-48 -47 -40 -58 174 -273 l199 -200 -194 -193 c-109
-108 -195 -203 -199 -218 -9 -35 23 -75 65 -79 30 -3 45 10 230 194 l198 197
179 -180 c200 -201 221 -218 258 -209 33 8 59 49 51 81 -4 14 -89 108 -197
216 l-191 191 196 197 c168 169 196 201 196 228 0 52 -52 82 -100 57 -14 -7
-108 -96 -209 -197 l-183 -184 -200 198 c-215 214 -226 222 -273 174z"/>
<path d="M3349 3932 c-217 -57 -379 -269 -379 -495 1 -224 156 -426 378 -491
69 -20 227 -15 296 9 172 62 303 212 336 385 71 370 -267 687 -631 592z m248
-143 c102 -35 176 -102 224 -204 20 -42 24 -66 24 -145 0 -88 -3 -101 -33
-162 -38 -78 -101 -138 -182 -177 -47 -22 -69 -26 -150 -26 -82 0 -103 4 -152
27 -74 34 -146 107 -183 183 -26 54 -29 70 -29 155 0 83 4 102 28 154 47 97
154 186 243 202 15 3 30 7 33 10 10 11 128 0 177 -17z"/>
<path d="M152 3887 c-25 -26 -27 -48 -11 -79 6 -12 96 -105 199 -208 l188
-187 -193 -193 c-123 -123 -195 -203 -199 -219 -7 -38 23 -75 64 -79 31 -3 45
8 231 194 l197 197 191 -192 c108 -108 202 -193 216 -197 32 -8 73 18 81 51 9
37 -8 58 -209 258 l-180 179 197 197 c168 169 196 201 196 228 0 35 -28 64
-67 69 -24 2 -54 -24 -227 -195 l-199 -199 -187 188 c-103 103 -196 193 -208
199 -32 17 -56 13 -80 -12z"/>
<path d="M1936 3894 c-222 -57 -386 -270 -386 -497 1 -268 224 -498 490 -506
191 -6 366 91 461 254 87 149 92 323 13 483 -103 211 -351 325 -578 266z m231
-140 c100 -30 186 -107 234 -209 20 -42 24 -66 24 -145 0 -88 -3 -101 -32
-161 -39 -79 -102 -140 -181 -177 -49 -23 -70 -27 -152 -27 -82 0 -103 4 -152
27 -240 112 -290 431 -95 610 41 38 107 75 147 83 13 2 25 6 27 9 10 9 138 3
180 -10z"/>
<path d="M522 2594 c-232 -60 -393 -264 -392 -497 1 -273 233 -507 505 -507
286 0 513 224 513 506 0 144 -49 264 -150 365 -123 124 -308 176 -476 133z
m237 -145 c211 -72 311 -313 212 -514 -37 -75 -101 -137 -179 -173 -49 -23
-70 -27 -152 -27 -82 0 -103 4 -152 27 -114 53 -203 177 -215 298 -13 135 51
271 164 349 85 58 219 75 322 40z"/>
<path d="M2996 2529 c-28 -22 -33 -48 -15 -81 6 -11 96 -105 199 -208 l188
-187 -193 -193 c-123 -123 -195 -203 -199 -219 -7 -37 23 -75 64 -79 30 -3 45
10 230 194 l198 196 185 -185 c102 -102 194 -190 206 -196 47 -26 110 22 97
74 -4 14 -89 108 -197 216 l-191 191 197 198 c183 185 196 200 193 230 -2 22
-12 40 -30 53 -23 17 -31 18 -55 8 -16 -6 -114 -97 -217 -200 l-189 -189 -187
188 c-103 103 -196 193 -208 199 -30 16 -46 14 -76 -10z"/>
<path d="M522 1196 c-164 -41 -301 -164 -359 -323 -119 -328 117 -673 467
-682 283 -7 520 225 520 509 0 230 -159 434 -385 494 -66 17 -177 18 -243 2z
m273 -162 c76 -35 149 -108 183 -182 23 -49 26 -71 27 -152 0 -83 -4 -102 -27
-152 -119 -255 -462 -294 -630 -72 -130 170 -89 409 90 533 96 67 248 77 357
25z"/>
<path d="M3375 1199 c-189 -38 -352 -202 -394 -397 -55 -258 105 -519 366
-595 81 -24 214 -19 298 11 89 32 137 62 204 131 61 62 115 166 131 251 60
313 -174 603 -490 608 -36 0 -87 -4 -115 -9z m260 -164 c76 -36 149 -109 183
-183 23 -49 26 -71 27 -152 0 -88 -3 -101 -32 -161 -39 -79 -102 -140 -181
-177 -49 -23 -70 -27 -152 -27 -82 0 -103 4 -152 27 -261 122 -290 484 -53
645 101 68 250 80 360 28z"/>
<path d="M1635 1148 c-53 -41 -38 -64 178 -280 l195 -195 -193 -193 c-109
-109 -196 -204 -200 -219 -9 -36 23 -75 65 -79 31 -3 45 8 231 194 l197 197
186 -186 c102 -102 195 -191 206 -197 46 -24 109 24 96 74 -3 14 -92 111 -197
216 l-192 192 197 198 c184 185 197 200 194 230 -4 41 -42 71 -79 64 -16 -4
-97 -76 -219 -199 l-193 -193 -199 199 c-213 213 -221 218 -273 177z"/>
</g>
</svg>
