<?xml version="1.0" encoding="UTF-8"?>
<svg width="455px" height="455px" viewBox="0 0 455 455" version="1.1" xmlns="http://www.w3.org/2000/svg" xmlns:xlink="http://www.w3.org/1999/xlink">
    <title>Main Board</title>
    <g id="Page-1" stroke="none" stroke-width="1" fill="none" fill-rule="evenodd" stroke-linecap="round" stroke-linejoin="round">
        <g id="Matchmaking---Desktop" transform="translate(-491.000000, -345.000000)">
            <g id="Main-Board" transform="translate(499.000000, 353.000000)">
                <g id="Mega-Board" transform="translate(0.110173, 0.403066)" stroke="#4E4E4E" stroke-width="15">
                    <line x1="145.897183" y1="6.64832772e-16" x2="145.897183" y2="438" id="Line"></line>
                    <line x1="292.102817" y1="0" x2="292.102817" y2="438" id="Line"></line>
                    <line x1="438" y1="145.897183" x2="0" y2="145.897183" id="Line"></line>
                    <line x1="438" y1="292.102817" x2="0" y2="292.102817" id="Line"></line>
                </g>
                <g id="Group" transform="translate(8.824856, 9.824856)" stroke="#000000" stroke-width="8">
                    <g id="Mini-Board">
                        <line x1="41.6373239" y1="1.8973538e-16" x2="41.6373239" y2="125" id="Line"></line>
                        <line x1="83.3626761" y1="0" x2="83.3626761" y2="125" id="Line"></line>
                        <line x1="125" y1="41.6373239" x2="0" y2="41.6373239" id="Line"></line>
                        <line x1="125" y1="83.3626761" x2="0" y2="83.3626761" id="Line"></line>
                    </g>
                </g>
                <g id="Top-Middle" transform="translate(155.903066, 9.824856)" stroke="#000000" stroke-width="8">
                    <g id="Mini-Board">
                        <line x1="41.6373239" y1="1.8973538e-16" x2="41.6373239" y2="125" id="Line"></line>
                        <line x1="83.3626761" y1="0" x2="83.3626761" y2="125" id="Line"></line>
                        <line x1="125" y1="41.6373239" x2="0" y2="41.6373239" id="Line"></line>
                        <line x1="125" y1="83.3626761" x2="0" y2="83.3626761" id="Line"></line>
                    </g>
                </g>
                <g id="Group" transform="translate(304.395490, 9.824856)" stroke="#000000" stroke-width="8">
                    <g id="Mini-Board">
                        <line x1="41.6373239" y1="1.8973538e-16" x2="41.6373239" y2="125" id="Line"></line>
                        <line x1="83.3626761" y1="0" x2="83.3626761" y2="125" id="Line"></line>
                        <line x1="125" y1="41.6373239" x2="0" y2="41.6373239" id="Line"></line>
                        <line x1="125" y1="83.3626761" x2="0" y2="83.3626761" id="Line"></line>
                    </g>
                </g>
                <g id="Group" transform="translate(303.688384, 157.610173)" stroke="#000000" stroke-width="8">
                    <g id="Mini-Board">
                        <line x1="41.6373239" y1="1.8973538e-16" x2="41.6373239" y2="125" id="Line"></line>
                        <line x1="83.3626761" y1="0" x2="83.3626761" y2="125" id="Line"></line>
                        <line x1="125" y1="41.6373239" x2="0" y2="41.6373239" id="Line"></line>
                        <line x1="125" y1="83.3626761" x2="0" y2="83.3626761" id="Line"></line>
                    </g>
                </g>
                <g id="Group" transform="translate(156.610173, 157.610173)" stroke="#000000" stroke-width="8">
                    <g id="Mini-Board">
                        <line x1="41.6373239" y1="1.8973538e-16" x2="41.6373239" y2="125" id="Line"></line>
                        <line x1="83.3626761" y1="0" x2="83.3626761" y2="125" id="Line"></line>
                        <line x1="125" y1="41.6373239" x2="0" y2="41.6373239" id="Line"></line>
                        <line x1="125" y1="83.3626761" x2="0" y2="83.3626761" id="Line"></line>
                    </g>
                </g>
                <g id="Group" transform="translate(8.824856, 156.903066)" stroke="#000000" stroke-width="8">
                    <g id="Mini-Board">
                        <line x1="41.6373239" y1="1.8973538e-16" x2="41.6373239" y2="125" id="Line"></line>
                        <line x1="83.3626761" y1="0" x2="83.3626761" y2="125" id="Line"></line>
                        <line x1="125" y1="41.6373239" x2="0" y2="41.6373239" id="Line"></line>
                        <line x1="125" y1="83.3626761" x2="0" y2="83.3626761" id="Line"></line>
                    </g>
                </g>
                <g id="Group" transform="translate(8.824856, 305.395490)" stroke="#000000" stroke-width="8">
                    <g id="Mini-Board">
                        <line x1="41.6373239" y1="1.8973538e-16" x2="41.6373239" y2="125" id="Line"></line>
                        <line x1="83.3626761" y1="0" x2="83.3626761" y2="125" id="Line"></line>
                        <line x1="125" y1="41.6373239" x2="0" y2="41.6373239" id="Line"></line>
                        <line x1="125" y1="83.3626761" x2="0" y2="83.3626761" id="Line"></line>
                    </g>
                </g>
                <g id="Group" transform="translate(156.610173, 304.688384)" stroke="#000000" stroke-width="8">
                    <g id="Mini-Board">
                        <line x1="41.6373239" y1="1.8973538e-16" x2="41.6373239" y2="125" id="Line"></line>
                        <line x1="83.3626761" y1="0" x2="83.3626761" y2="125" id="Line"></line>
                        <line x1="125" y1="41.6373239" x2="0" y2="41.6373239" id="Line"></line>
                        <line x1="125" y1="83.3626761" x2="0" y2="83.3626761" id="Line"></line>
                    </g>
                </g>
                <g id="Group" transform="translate(304.395490, 305.395490)" stroke="#000000" stroke-width="8">
                    <g id="Mini-Board">
                        <line x1="41.6373239" y1="1.8973538e-16" x2="41.6373239" y2="125" id="Line"></line>
                        <line x1="83.3626761" y1="0" x2="83.3626761" y2="125" id="Line"></line>
                        <line x1="125" y1="41.6373239" x2="0" y2="41.6373239" id="Line"></line>
                        <line x1="125" y1="83.3626761" x2="0" y2="83.3626761" id="Line"></line>
                    </g>
                </g>
            </g>
        </g>
    </g>
</svg>